HIERARCHY
ROOT Hips
{
	OFFSET -14.64140 90.27770 -84.91600
	CHANNELS 6 Xposition Yposition Zposition Zrotation Xrotation Yrotation
	JOINT Spine
	{
		OFFSET 0.00000 13.20850 -1.60436
		CHANNELS 3 Zrotation Xrotation Yrotation
		JOINT Spine1
		{
			OFFSET 0.00000 8.61716 0.00000
			CHANNELS 3 Zrotation Xrotation Yrotation
			JOINT Spine2
			{
				OFFSET 0.00000 8.61717 0.00000
				CHANNELS 3 Zrotation Xrotation Yrotation
				JOINT Spine3
				{
					OFFSET 0.00000 8.61717 0.00000
					CHANNELS 3 Zrotation Xrotation Yrotation
					JOINT Neck
					{
						OFFSET 0.00000 11.07920 1.10792
						CHANNELS 3 Zrotation Xrotation Yrotation
						JOINT Neck1
						{
							OFFSET 0.00000 7.08032 0.00000
							CHANNELS 3 Zrotation Xrotation Yrotation
							JOINT Head
							{
								OFFSET 0.00000 7.08031 0.00000
								CHANNELS 3 Zrotation Xrotation Yrotation
								End site
								{
									OFFSET 0.00000 0.00000 0.00000
								}
							}
						}
					}
					JOINT RightShoulder
					{
						OFFSET -0.01000 7.91373 5.19711
						CHANNELS 3 Zrotation Xrotation Yrotation
						JOINT RightArm
						{
							OFFSET -18.41580 0.00000 0.00000
							CHANNELS 3 Zrotation Xrotation Yrotation
							JOINT RightForeArm
							{
								OFFSET -29.11090 0.00000 0.00000
								CHANNELS 3 Zrotation Xrotation Yrotation
								JOINT RightHand
								{
									OFFSET -24.65040 0.00000 0.00000
									CHANNELS 3 Zrotation Xrotation Yrotation
									JOINT RightHandThumb1
									{
										OFFSET -5.35114 -0.85590 3.97906
										CHANNELS 3 Zrotation Xrotation Yrotation
										JOINT RightHandThumb2
										{
											OFFSET -4.52789 0.00000 0.00000
											CHANNELS 3 Zrotation Xrotation Yrotation
											JOINT RightHandThumb3
											{
												OFFSET -2.46976 0.00000 0.00000
												CHANNELS 3 Zrotation Xrotation Yrotation
												End site
												{
													OFFSET 0.00000 0.00000 0.00000
												}
											}
										}
									}
									JOINT RightHandIndex1
									{
										OFFSET -14.26970 0.00000 2.88139
										CHANNELS 3 Zrotation Xrotation Yrotation
										JOINT RightHandIndex2
										{
											OFFSET -5.48836 0.00000 0.00000
											CHANNELS 3 Zrotation Xrotation Yrotation
											JOINT RightHandIndex3
											{
												OFFSET -3.01859 0.00000 0.00000
												CHANNELS 3 Zrotation Xrotation Yrotation
												End site
												{
													OFFSET 0.00000 0.00000 0.00000
												}
											}
										}
									}
									JOINT RightHandMiddle1
									{
										OFFSET -14.26970 0.00000 -0.09147
										CHANNELS 3 Zrotation Xrotation Yrotation
										JOINT RightHandMiddle2
										{
											OFFSET -6.17441 0.00000 0.00000
											CHANNELS 3 Zrotation Xrotation Yrotation
											JOINT RightHandMiddle3
											{
												OFFSET -3.56743 0.00000 0.00000
												CHANNELS 3 Zrotation Xrotation Yrotation
												End site
												{
													OFFSET 0.00000 0.00000 0.00000
												}
											}
										}
									}
									JOINT RightHandRing1
									{
										OFFSET -12.69180 0.00000 -3.06433
										CHANNELS 3 Zrotation Xrotation Yrotation
										JOINT RightHandRing2
										{
											OFFSET -5.62556 0.00000 0.00000
											CHANNELS 3 Zrotation Xrotation Yrotation
											JOINT RightHandRing3
											{
												OFFSET -3.56744 0.00000 0.00000
												CHANNELS 3 Zrotation Xrotation Yrotation
												End site
												{
													OFFSET 0.00000 0.00000 0.00000
												}
											}
										}
									}
									JOINT RightHandPinky1
									{
										OFFSET -11.11390 0.00000 -6.03719
										CHANNELS 3 Zrotation Xrotation Yrotation
										JOINT RightHandPinky2
										{
											OFFSET -4.52789 0.00000 0.00000
											CHANNELS 3 Zrotation Xrotation Yrotation
											JOINT RightHandPinky3
											{
												OFFSET -2.46976 0.00000 0.00000
												CHANNELS 3 Zrotation Xrotation Yrotation
												End site
												{
													OFFSET 0.00000 0.00000 0.00000
												}
											}
										}
									}
								}
							}
						}
					}
					JOINT LeftShoulder
					{
						OFFSET 0.01000 7.91373 5.19711
						CHANNELS 3 Zrotation Xrotation Yrotation
						JOINT LeftArm
						{
							OFFSET 18.41580 0.00000 0.00000
							CHANNELS 3 Zrotation Xrotation Yrotation
							JOINT LeftForeArm
							{
								OFFSET 29.11090 0.00000 0.00000
								CHANNELS 3 Zrotation Xrotation Yrotation
								JOINT LeftHand
								{
									OFFSET 24.65040 0.00000 0.00000
									CHANNELS 3 Zrotation Xrotation Yrotation
									JOINT LeftHandThumb1
									{
										OFFSET 5.35114 -0.85590 3.97906
										CHANNELS 3 Zrotation Xrotation Yrotation
										JOINT LeftHandThumb2
										{
											OFFSET 4.52789 0.00000 0.00000
											CHANNELS 3 Zrotation Xrotation Yrotation
											JOINT LeftHandThumb3
											{
												OFFSET 2.46977 0.00000 0.00000
												CHANNELS 3 Zrotation Xrotation Yrotation
												End site
												{
													OFFSET 0.00000 0.00000 0.00000
												}
											}
										}
									}
									JOINT LeftHandIndex1
									{
										OFFSET 14.26970 0.00000 2.88139
										CHANNELS 3 Zrotation Xrotation Yrotation
										JOINT LeftHandIndex2
										{
											OFFSET 5.48836 0.00000 0.00000
											CHANNELS 3 Zrotation Xrotation Yrotation
											JOINT LeftHandIndex3
											{
												OFFSET 3.01859 0.00000 0.00000
												CHANNELS 3 Zrotation Xrotation Yrotation
												End site
												{
													OFFSET 0.00000 0.00000 0.00000
												}
											}
										}
									}
									JOINT LeftHandMiddle1
									{
										OFFSET 14.26970 0.00000 -0.09147
										CHANNELS 3 Zrotation Xrotation Yrotation
										JOINT LeftHandMiddle2
										{
											OFFSET 6.17440 0.00000 0.00000
											CHANNELS 3 Zrotation Xrotation Yrotation
											JOINT LeftHandMiddle3
											{
												OFFSET 3.56744 0.00000 0.00000
												CHANNELS 3 Zrotation Xrotation Yrotation
												End site
												{
													OFFSET 0.00000 0.00000 0.00000
												}
											}
										}
									}
									JOINT LeftHandRing1
									{
										OFFSET 12.69180 0.00000 -3.06433
										CHANNELS 3 Zrotation Xrotation Yrotation
										JOINT LeftHandRing2
										{
											OFFSET 5.62556 0.00000 0.00000
											CHANNELS 3 Zrotation Xrotation Yrotation
											JOINT LeftHandRing3
											{
												OFFSET 3.56744 0.00000 0.00000
												CHANNELS 3 Zrotation Xrotation Yrotation
												End site
												{
													OFFSET 0.00000 0.00000 0.00000
												}
											}
										}
									}
									JOINT LeftHandPinky1
									{
										OFFSET 11.11390 0.00000 -6.03719
										CHANNELS 3 Zrotation Xrotation Yrotation
										JOINT LeftHandPinky2
										{
											OFFSET 4.52789 0.00000 0.00000
											CHANNELS 3 Zrotation Xrotation Yrotation
											JOINT LeftHandPinky3
											{
												OFFSET 2.46976 0.00000 0.00000
												CHANNELS 3 Zrotation Xrotation Yrotation
												End site
												{
													OFFSET 0.00000 0.00000 0.00000
												}
											}
										}
									}
								}
							}
						}
					}
					JOINT pCube4
					{
						OFFSET 0.00000 10.91090 1.10792
						CHANNELS 3 Zrotation Xrotation Yrotation
						End site
						{
							OFFSET 0.00000 0.00000 0.00000
						}
					}
				}
			}
		}
	}
	JOINT RightUpLeg
	{
		OFFSET -9.98441 0.00000 0.00000
		CHANNELS 3 Zrotation Xrotation Yrotation
		JOINT RightLeg
		{
			OFFSET 0.00000 -42.11790 0.00000
			CHANNELS 3 Zrotation Xrotation Yrotation
			JOINT RightFoot
			{
				OFFSET 0.00000 -45.00020 -0.00001
				CHANNELS 3 Zrotation Xrotation Yrotation
				JOINT RightForeFoot
				{
					OFFSET 0.00000 -3.74820 0.00000
					CHANNELS 3 Zrotation Xrotation Yrotation
					JOINT RightToeBase
					{
						OFFSET 0.00000 0.06325 14.43120
						CHANNELS 3 Zrotation Xrotation Yrotation
						End site
						{
							OFFSET 0.00000 0.00000 0.00000
						}
					}
				}
			}
		}
	}
	JOINT LeftUpLeg
	{
		OFFSET 9.98441 0.00000 0.00000
		CHANNELS 3 Zrotation Xrotation Yrotation
		JOINT LeftLeg
		{
			OFFSET 0.00000 -42.11800 0.00000
			CHANNELS 3 Zrotation Xrotation Yrotation
			JOINT LeftFoot
			{
				OFFSET 0.00000 -45.00070 0.00000
				CHANNELS 3 Zrotation Xrotation Yrotation
				JOINT LeftForeFoot
				{
					OFFSET 0.00000 -3.74824 0.00000
					CHANNELS 3 Zrotation Xrotation Yrotation
					JOINT LeftToeBase
					{
						OFFSET 0.00000 0.06325 14.43110
						CHANNELS 3 Zrotation Xrotation Yrotation
						End site
						{
							OFFSET 0.00000 0.00000 0.00000
						}
					}
				}
			}
		}
	}
}
MOTION
Frames: 4
Frame Time: 0.050000
-0.027370821104718796 -0.031108330584523267 -0.0026862579230759313 0.04658749749263866 0.0021421898304283525 -0.019280020235447653 6.333239733240058 1.5654904610770932 -2.46772890884818 -0.7494957086611831 3.454988778655684 0.3734977167293668 -0.4977594822600838 -1.2748220566612742 1.641249232299143 -0.26927762887642637 -0.46306232319547647 -0.13888007347957693 0.19792609715767528 12.721794386968819 -1.7863447082356048 0.32111886322494876 0.06363314587858807 -4.346376804247658 0.9970352510613284 -16.227977325748633 -0.37929663459905166 -10.846703839569859 3.731633006301349 -17.1530762643141 79.63412538390308 13.63704208738228 20.549721544776858 0.8017277847679524 -3.0395444692452522 111.63840745565889 4.251015728740532 0.17536696475867591 1.7629013083590823 4.503018433071838 -0.15292196047808052 -1.6321319877751417 -0.01720314358832621 -0.03661071907098178 -56.23944128824202 -0.009524919738589719 -0.005964135810726207 -56.18596312829683 -38.76669529737343 -0.005467262001647485 -0.0231661783753819 -0.021694653194641325 -0.01683725201105713 -0.009042371294758347 -0.038803482545206346 -0.02066014100413916 0.000959729277794817 -36.69674994662617 0.006756912485771297 0.009783725995114156 0.009301153505008925 -0.0296367960639764 0.026818188598101582 -0.02597200032905904 0.03663546955097099 -0.022660299455750335 -19.79741015492444 0.04374731042050318 -0.0056309661928456165 -0.035728172550982394 0.026543964211522414 0.019706823123612455 -0.0048398108930023855 -0.03118876239803344 0.02104183463656133 24.03688368008309 0.04559388229107464 -0.04331479786527057 28.858800447771035 0.020226613010760116 -0.011764942170504684 28.83600365112015 0.004628574589897916 -0.03099179832102215 10.934343539531579 2.455256740198244 14.836501409281865 -73.28683555349407 23.925774913402293 -18.806018104818133 6.978551257186426 -7.700696758024449 -101.51233978072936 -5.882817942510967 -4.925040103602114 -2.1388522987260368 -0.5050819038366269 0.07276370478566056 -8.120698386759894 0.0465343564525751 0.025532333327156684 44.556393468853145 0.029692956164925607 0.046580436996738576 44.564718910040895 12.467901071615794 -0.007324691484335057 0.0062283775622866905 0.02198262341062512 -0.0014570894852688565 0.012094022863937253 0.04278658248787469 -0.04918359123296963 -0.013500086450806394 11.131848096763111 0.014524500954141055 -0.012497911840867784 -0.020360359035757114 0.019025829319283077 0.010659575941751109 0.033256168446692345 0.04789075833843388 0.007614473616513752 4.750954643037078 -0.0007393339990609512 0.009753595924210184 0.001289026415062626 -0.003407674964306041 -0.02340151302345614 0.04299823996451647 -0.0003729105783081566 0.028608710326291264 -5.568483737140185 -0.03432771794787037 0.048297666926143346 -6.755345101094725 0.023905065944760946 -0.03316444486372657 -6.693646109779632 0.017048905649610462 0.016563830247058473 0.033125656244082306 0.006588812316786029 -0.0038312419475384136 8.021830327104285 3.4603466751733762 -19.182611789943497 0.025837347624531885 10.397154253424596 0.03171878776187066 -5.655444091181421 -15.630278584704719 3.2177539247142173 -0.009164552368570628 -0.027485455722175877 -0.019089984000455192 -0.045080079258075174 4.6721680063952755 -0.011978951346203604 12.47880534294189 -8.200312585580868 6.8559984805306655 0.029837798402289412 46.40068145982426 -0.03602827404158164 -4.309920750024933 -14.711594942232493 -3.83440527687632 0.006200424530820786 -0.04313866697601978 0.006931648722623844 -0.03763950741424678 -10.748914223254214 0.0037772776751980987 
-0.03557906157252002 0.017720778213447648 0.017219700302762972 0.011033242740115329 -0.04938007475210477 0.037187638298178276 6.388067166379617 1.6702970981013083 -2.46898071168287 -0.7553211436178313 3.507932159589109 0.40110193474896394 -0.5036362931880136 -1.1922456882070607 1.7574138588321964 -0.2794325232736762 -0.5149118750809402 -0.08965389464924572 0.23884998101357643 12.966137379715784 -1.9462333531852016 0.292389842911975 0.09213994090575342 -5.019397826701727 1.0757453368519678 -16.163836492856163 -0.4712843034474529 -11.082497072085683 3.7626415556921655 -17.076016391463146 78.10563814106625 12.085863431185672 22.391616061330005 1.1157539107700072 -2.7684797525195473 111.30355478304311 4.047005292949676 0.1535692541078324 1.8461350567400165 4.553571101621359 -0.13992500432326407 -1.6393684682658136 -0.010279685837106797 -0.014863824604213318 -56.25759823314619 -0.018860841917793032 -0.01635908468446074 -56.250008729581175 -38.78281356729982 0.023673298629576296 0.017261977449707342 -0.011586931164637942 -0.01669941464802096 -5.906768281805972e-05 0.02063774807934466 0.018155808015774565 0.028219984150970746 -36.68843143939099 0.018207518516719968 -0.01959994866447495 -0.028474775170293124 -0.018463676647523 -0.025878592615306843 0.03004457354117581 -0.008149810648835656 -0.04364548506842794 -19.777144982424335 0.008318958248046395 -0.009962987635967199 -0.028698820519200863 0.019400065948442374 -0.010989540014199687 -0.0336494084222455 0.016097713798188674 0.0036561290663860964 24.090578312522556 -0.037344321201080465 0.010192411690848523 28.901847766830016 0.03347504951732996 -0.00581395493594882 28.85121034369182 0.024240687782904318 0.025333588389807673 11.099556102219307 2.5319296555294506 14.882992070562466 -72.52785177099092 22.297635175550262 -19.698478256283654 6.805810669972899 -7.053321814725093 -101.26226564761166 -5.706487847583368 -4.2565724969450525 -2.6304478357705476 -0.45744609080386256 0.11741379678920108 -8.080474181340165 0.03210333559013118 -0.02689944259119754 44.58658152012847 -0.018821848514372238 0.025676365327213034 44.56352699207315 12.460897488707275 -0.0007975104056953638 0.002279022430681516 -0.024088824264773552 -0.0017671680051655756 -0.007207415796039842 0.03278059820845273 -0.02893793522868492 -0.03226149525429486 11.072398169063606 0.030336175034878107 -0.024407878126392783 0.008229725315351733 0.016476564193599087 0.03801389484083715 0.02218450725007109 0.017718292485434363 -0.032630358020561814 4.790815364949242 0.021976792243519287 0.004053109489164597 -0.03283834834268789 0.04105099904536617 -0.01417831845466812 0.021390750118327508 -0.007981767488511052 0.02250833156277608 -5.614508303488959 -0.04549605617953666 -0.00781570759043149 -6.706090316197121 -0.026098304098195687 0.04424028459322187 -6.7614077832742305 -0.03579479686914837 -0.017912289215933713 0.038381865290696066 0.0384649628228412 -0.04473717340691337 8.043619630012584 3.4641281856108215 -19.17050540098062 0.00035427399295418215 10.404285520070733 0.05585303430609137 -5.594371698448375 -15.696824727939198 3.1936920985880395 -0.03921622964401531 -0.029904809406711697 0.04265904400154619 -0.0104219243316999 4.699064124411539 -0.018676724286854202 12.48122529896685 -8.221140524356665 6.925012904764561 -0.00940224545714635 46.413762832243684 0.03294340759560993 -4.337559876885171 -14.7622429844391 -3.846159829335022 -0.015071359124223456 0.03269254942074587 0.009128385331023689 0.040398553392400685 -10.76976632940162 -0.01183088092664296 
0.00829739758800136 0.038748985636046784 0.004183096906636787 -0.00013663244406188495 0.028869190123386713 4.037837963090244e-05 6.514641220128619 1.7414875576723283 -2.512737096416976 -0.6834001436148649 3.522347648779112 0.40847076121267056 -0.5299165873621654 -1.2069031046179985 1.872765363526868 -0.23610997778210896 -0.5474190362416008 -0.0822570321502619 0.2952142099963999 13.312279935796976 -2.2248872221285856 0.24294283090273927 0.18135142225927248 -5.714656688084808 1.0769278660511696 -16.03261310076905 -0.5330766522731558 -11.645736119689271 3.90265805777289 -16.960352299703423 76.11559238995814 10.137569052774412 25.289740887895476 0.6882502693692225 -2.774664054240411 110.80580979606674 3.8460752626089247 0.1766611964546106 2.0074807265423265 4.520927756358621 -0.1066950886906379 -1.5878948814503007 -0.047783891464481025 0.015180027313381484 -56.28147046476314 0.0032865993643959625 0.004654670022563239 -56.26593748538653 -38.78795682048087 0.031367915084436315 0.0015962743929424773 0.008689123807027492 0.025040267597607333 -0.01042017970635898 0.029608159647605967 0.01740164558808368 0.04088218953933471 -36.67440386570055 0.015638390079132813 -0.022509870596719803 -0.04752969191862249 0.010729514767400923 0.01188613838992562 0.04676489612606006 -0.034757356092145364 -0.04490650599930529 -19.75824541299796 0.002016343698396195 -0.029874853389152276 -0.0012495090938537976 -0.04333055801666705 -0.027372249563412252 0.02650136275926452 -0.01767215161185375 -0.03661934399131993 24.0245573771038 0.006808688182958435 -0.024032420625411596 28.82265316138115 0.007722349238657152 -0.00485357704533328 28.912036394833372 -0.013330644702085555 0.04518754168406585 11.406786349510387 2.5958281191710713 14.912541095518604 -71.05422715316429 20.338404406083452 -21.795909176659766 8.078180501976037 -6.859404054783208 -101.55393426330942 -5.330224262443614 -3.173311499543001 -3.4073243583619814 -0.4977516709472079 0.09927334004928243 -8.162876312690083 -0.026777309178563222 -0.048009275776491764 44.57601346598182 0.03966501874383482 0.014864748531353902 44.569279354463426 12.45820696739068 -0.024826398888843262 -0.03012662738635868 0.027735918031040502 -0.026998186474838478 -0.024238769266374985 0.030302948579818245 0.01162523771735143 0.04075642323531431 11.097746551815453 0.03187195440824215 -0.00671329350133699 -0.016442740898586536 0.004729632641827716 -0.04172975384081526 -0.009557744881915048 -0.00042310154924501145 0.018858567095631704 4.745280549977858 -0.014521958794624543 0.04650210217358519 -0.024052272665653244 -0.0023314295982518303 -0.013027133435735005 0.010972190974270274 -0.019794384729779017 0.005418989831018382 -5.624552671280799 0.013471291305004199 0.03908293257908264 -6.709864085367746 -0.03541718776102847 0.00011514288719259367 -6.722799156623454 -0.005777248608678459 -0.016235372002379535 0.014272762879854524 0.00040431057664169843 -0.012857031116417917 8.030057903766549 3.4916192661894283 -19.233873668709297 0.015228531813196349 10.385812646933866 -0.015451653674182109 -5.5947720260605145 -15.68493953827132 3.2208498033013075 -0.03433853448609943 0.010335150430999581 0.04094949559653132 -0.03958808045541285 4.698956307501435 -0.02725918306485515 12.419373519110751 -8.210572945693373 6.925395721177942 -0.020091375869652296 46.35519523100829 0.045731507368338795 -4.342928678493684 -14.77568500619438 -3.839916074790683 -0.045432553609436474 -0.023772350596662686 0.03227195994038147 -0.031956120235771796 -10.715603518414708 -0.013819102080749837 
-0.030862642115785162 -0.012535502544265293 -0.04949651769757293 -0.04655751408399952 0.0028506813265992315 -0.04300956028227655 6.666143899614721 1.8963587975512466 -2.4879546751966157 -0.752770428641201 3.590354891840387 0.41129140970211153 -0.5626802615836881 -1.2629761072758867 1.9989104434724982 -0.19835399469218457 -0.4935412078140683 -0.10933365724707327 0.3222031299639033 13.628348854702535 -2.4214860767763247 0.23595250743977036 0.21102069260712958 -6.314701561277235 1.1582978020390968 -15.979144432352943 -0.4989190654419745 -12.147598633605625 4.000317425230144 -16.76204240585278 74.05135561445626 8.772475611480063 28.518541628756054 -0.7599435275320948 -2.8083228599504193 110.15987349591525 3.923901104406556 0.135514078157986 2.2232674216410904 4.545704436632715 -0.13949036379515084 -1.5872975485317202 0.0026803732248519125 -0.009598844218408982 -56.229131174070915 -0.029814802020966157 0.0398998417782278 -56.25765994863727 -38.74778317537057 -0.017397268311530087 -0.009150032364985749 -0.0022992950628850273 0.006256591464581684 -0.010113925847868596 -0.023238835397943178 -0.042275844660710396 -0.046061044384425064 -36.723836860617766 0.025524559853265294 0.00928847397445497 0.0233414876551889 -0.039086797903341526 0.011784150272343608 0.022048036664729945 -0.015330547758510551 0.0026191801577971044 -19.753349755760247 0.004350351464328892 0.031533426232568135 -0.03766449963747047 -0.025222378747775335 0.01601015006407866 0.011851544349697863 -0.001985184733985417 0.0026698804513186933 24.030273167338684 -0.021166377020397493 -0.020780733075539456 28.820078943563725 0.02175348217279689 0.02981890994783433 28.84426157645687 -0.012436948769393346 0.03282560854529836 11.821951053984815 2.6226530737108935 14.922946958491412 -69.38468365694145 18.66889487547146 -24.73634770505021 10.217544885776663 -6.851895074099276 -102.43709584715181 -5.132759514318219 -2.085234255424852 -4.1560483703557525 -0.45494299879417244 0.0638563094133433 -8.097163261340562 0.03538767137132842 0.04424013109287603 44.57161924601387 0.023826096731574643 -0.03567492778691152 44.616488732101956 12.46980560718423 -0.009022063555148244 -0.02053242747754275 0.02390867141066893 -0.03873821002552019 0.003500345182465488 0.033580590894518085 0.010313493486003975 0.032608079068517704 11.079981845361445 0.040894798120979896 -0.01219714301706143 -0.04454263382774876 0.04932922503173851 0.026571506324599935 -0.026403960050648836 -0.01740280431271503 -0.021565081459799566 4.768645148825972 -0.002021691565568891 0.040085738284360364 0.016196039243745436 -0.03442360260731831 -0.012907458565162488 0.014963097784256897 -0.019662185078508684 0.046428004811649715 -5.612919138534807 -0.02458827733648704 0.02185404403961512 -6.68352278177069 0.03223783379766373 0.03769238924387537 -6.705416169069947 0.04662392759091118 0.0464490107415782 0.0028019896711259313 0.0023617221795131558 -0.017848279076489407 8.067688082012591 3.524136199706029 -19.20865102388507 -0.016926553231092867 10.426317390270603 0.003384499695122934 -5.63941903987485 -15.706032466420197 3.191006130161208 -0.018019165917435517 -0.018756160366132254 0.017309356664464228 0.04390755906055896 4.685470060820589 -0.034634073461450296 12.443538774815009 -8.248258811567263 6.862946231317424 0.024215159986982714 46.41663295035668 0.00547179176878917 -4.347682058647958 -14.771802428794413 -3.7993175228637326 0.013411176215277345 -0.027446123532028768 -0.011699648041078854 -0.041200029607660525 -10.74905416744521 -0.023582656599230034 
